nColumns=19
nRows=60
DataType=double
version=3
OpenSimVersion=4.1
endheader
time	ground_force_1_vx	ground_force_1_vy	ground_force_1_vz	ground_force_1_px	ground_force_1_py	ground_force_1_pz	ground_force_1_mx	ground_force_1_my	ground_force_1_mz	ground_force_2_vx	ground_force_2_vy	ground_force_2_vz	ground_force_2_px	ground_force_2_py	ground_force_2_pz	ground_force_2_mx	ground_force_2_my	ground_force_2_mz
1.27	-73.4556	431.841	-17.209	0.995995	0	-0.307323	-0	0.372958	-0	0	0	0	-0.000933711	0	-0.000634447	0	0	0
1.28	-97.5166	791.436	-1.58345	0.981736	0	-0.30779	-0	2.81736	-0	0	0	0	-0.000933707	0	-0.000634548	0	0	0
1.29	-147.86	1104.33	37.1461	0.970527	0	-0.306951	-0	4.926	-0	0	0	0	-0.000933702	0	-0.00063465	0	0	0
1.3	-216.632	1261.98	54.6829	0.956504	0	-0.305466	-0	5.32858	-0	0	0	0	-0.000933698	0	-0.000634752	0	0	0
1.31	-266.83	1344.63	7.57682	0.934456	0	-0.303345	-0	4.22654	-0	0	0	0	-0.000933693	0	-0.000634854	0	0	0
1.32	-264.577	1447.46	-46.9888	0.902183	0	-0.300495	-0	2.71028	-0	0	0	0	-0.000933689	0	-0.000634955	0	0	0
1.33	-220.33	1572.21	-47.8594	0.863201	0	-0.297264	-0	1.49792	-0	0	0	0	-0.000933684	0	-0.000635057	0	0	0
1.34	-160.865	1665.95	-38.3238	0.823176	0	-0.294423	-0	0.597728	-0	0	0	0	-0.00093368	0	-0.000635158	0	0	0
1.35	-97.6278	1695.35	-63.4912	0.784248	0	-0.292482	0	-0.180735	0	0	0	0	-0.000933675	0	-0.00063526	0	0	0
1.36	-34.3221	1668	-84.59	0.744713	0	-0.291437	0	-0.902322	0	0	0	0	-0.000933671	0	-0.000635361	0	0	0
1.37	36.034	1596.37	-67.87	0.702137	0	-0.291125	0	-1.6585	0	0	0	0	-0.000933666	0	-0.000635462	0	0	0
1.38	116.58	1475.46	-42.5184	0.656022	0	-0.291471	0	-2.65427	0	0	0	0	-0.000933662	0	-0.000635563	0	0	0
1.39	187.8	1306.61	-27.9488	0.608642	0	-0.29233	0	-3.9429	0	0	0	0	-0.000933657	0	-0.000635664	0	0	0
1.4	226.473	1100.98	-11.2379	0.563628	0	-0.293349	0	-5.1364	0	0	0	0	-0.000933653	0	-0.000635765	0	0	0
1.41	228.683	866.624	8.08356	0.523267	0	-0.2941	0	-5.56424	0	0	0	0	-0.000933648	0	-0.000635865	0	0	0
1.42	201.77	621.293	18.6824	0.486534	0	-0.2942	0	-4.88637	0	0	0	0	-0.000933644	0	-0.000635965	0	0	0
1.43	158.037	393.896	18.7912	0.447876	0	-0.292968	0	-3.47105	0	0	0	0	-0.000933639	0	-0.000636065	0	0	0
1.44	108.504	211.299	12.0418	0.39251	0	-0.287545	0	-1.91157	0	0	0	0	-0.000933635	0	-0.000636165	0	0	0
1.45	60.2708	92.7548	4.21184	0.256651	0	-0.256683	0	-0.309268	0	0	0	0	-0.000933631	0	-0.000636265	0	0	0
1.46	0	0	0	-0.000933701	0	-0.000636435	0	0	0	0	0	0	-0.000933626	0	-0.000636364	0	0	0
1.47	0	0	0	-0.000933698	0	-0.000636535	0	0	0	0	0	0	-0.000933622	0	-0.000636463	0	0	0
1.48	0	0	0	-0.000933694	0	-0.000636634	0	0	0	0	0	0	-0.000933617	0	-0.000636562	0	0	0
1.49	0	0	0	-0.000933691	0	-0.000636733	0	0	0	0	0	0	-0.000933613	0	-0.00063666	0	0	0
1.5	0	0	0	-0.000933687	0	-0.000636832	0	0	0	0	0	0	-0.000933609	0	-0.000636758	0	0	0
1.51	0	0	0	-0.000933683	0	-0.000636931	0	0	0	0	0	0	-0.000933604	0	-0.000636856	0	0	0
1.52	0	0	0	-0.00093368	0	-0.000637029	0	0	0	0	0	0	-0.0009336	0	-0.000636953	0	0	0
1.53	0	0	0	-0.000933676	0	-0.000637126	0	0	0	0	0	0	-0.000933596	0	-0.00063705	0	0	0
1.54	0	0	0	-0.000933673	0	-0.000637223	0	0	0	0	0	0	-0.000933591	0	-0.000637147	0	0	0
1.55	0	0	0	-0.000933669	0	-0.00063732	0	0	0	-28.9376	135.539	-16.8154	1.00847	0	-0.40839	0	-1.00747	0
1.56	0	0	0	-0.000933666	0	-0.000637417	0	0	0	-35.7805	332.577	-23.1675	0.995684	0	-0.405701	0	-2.759	0
1.57	0	0	0	-0.000933662	0	-0.000637513	0	0	0	-48.0403	622.136	-2.35739	0.990896	0	-0.403571	0	-1.84923	0
1.58	0	0	0	-0.000933659	0	-0.000637608	0	0	0	-94.8995	884.646	47.7048	0.985741	0	-0.402926	0	-0.136331	0
1.59	0	0	0	-0.000933655	0	-0.000637703	0	0	0	-165.017	1031.85	71.3602	0.975713	0	-0.403898	-0	0.624305	-0
1.6	0	0	0	-0.000933652	0	-0.000637798	0	0	0	-219.565	1128.21	37.3152	0.955961	0	-0.405794	-0	0.333001	-0
1.61	0	0	0	-0.000933648	0	-0.000637892	0	0	0	-230.224	1255.94	21.6883	0.924872	0	-0.407176	0	-0.128351	0
1.62	0	0	0	-0.000933645	0	-0.000637985	0	0	0	-198.946	1412.15	70.9692	0.886429	0	-0.407375	0	-0.143483	0
1.63	0	0	0	-0.000933641	0	-0.000638078	0	0	0	-144.331	1535.71	114.502	0.84573	0	-0.407102	-0	0.306387	-0
1.64	0	0	0	-0.000933638	0	-0.000638171	0	0	0	-74.2657	1587.41	99.2881	0.804374	0	-0.406998	-0	1.02272	-0
1.65	0	0	0	-0.000933635	0	-0.000638263	0	0	0	5.41314	1572.46	72.0436	0.761475	0	-0.406775	-0	1.79114	-0
1.66	0	0	0	-0.000933631	0	-0.000638354	0	0	0	86.1803	1499.98	76.3182	0.716475	0	-0.405754	-0	2.31781	-0
1.67	0	0	0	-0.000933628	0	-0.000638445	0	0	0	160.119	1370.88	76.4239	0.670504	0	-0.403564	-0	2.27276	-0
1.68	0	0	0	-0.000933625	0	-0.000638535	0	0	0	216.88	1190.21	45.8287	0.626004	0	-0.400253	-0	1.50379	-0
1.69	0	0	0	-0.000933621	0	-0.000638624	0	0	0	241.61	970.834	14.4169	0.585115	0	-0.396083	-0	0.369195	-0
1.7	0	0	0	-0.000933618	0	-0.000638713	0	0	0	232.066	737.212	2.54812	0.547321	0	-0.391493	0	-0.073156	0
1.71	0	0	0	-0.000933615	0	-0.000638801	0	0	0	201.913	513.423	-2.01694	0.5066	0	-0.38734	-0	1.25513	-0
1.72	0	0	0	-0.000933612	0	-0.000638889	0	0	0	162.363	313.097	-9.12728	0.446948	0	-0.385024	-0	3.92531	-0
1.73	0	0	0	-0.000933609	0	-0.000638976	0	0	0	113.924	155.682	-15.9031	0.328763	0	-0.385216	-0	5.51718	-0
1.74	0	0	0	-0.000933605	0	-0.000639062	0	0	0	60.5112	63.2174	-15.7436	0.0139935	0	-0.364535	-0	3.82489	-0
1.75	0	0	0	-0.000933602	0	-0.000639147	0	0	0	0	0	0	-0.000933507	0	-0.000639057	0	0	0
1.76	0	0	0	-0.000933599	0	-0.000639232	0	0	0	0	0	0	-0.000933503	0	-0.000639141	0	0	0
1.77	0	0	0	-0.000933596	0	-0.000639316	0	0	0	0	0	0	-0.000933499	0	-0.000639224	0	0	0
1.78	0	0	0	-0.000933593	0	-0.000639399	0	0	0	0	0	0	-0.000933495	0	-0.000639307	0	0	0
1.79	0	0	0	-0.00093359	0	-0.000639482	0	0	0	0	0	0	-0.000933492	0	-0.000639389	0	0	0
1.8	0	0	0	-0.000933587	0	-0.000639564	0	0	0	0	0	0	-0.000933488	0	-0.00063947	0	0	0
1.81	0	0	0	-0.000933584	0	-0.000639645	0	0	0	0	0	0	-0.000933485	0	-0.000639551	0	0	0
1.82	-33.0168	113.089	-10.2593	1.13648	0	-0.281722	0	-3.84724	0	0	0	0	-0.000933481	0	-0.00063963	0	0	0
1.83	-60.565	318.614	-31.6514	1.05816	0	-0.313394	0	-3.05468	0	0	0	0	-0.000933478	0	-0.000639709	0	0	0
1.84	-93.2136	690.061	-27.4187	1.04185	0	-0.315345	-0	0.422237	-0	0	0	0	-0.000933474	0	-0.000639787	0	0	0
1.85	-142.369	1097.95	20.0057	1.03199	0	-0.31492	-0	4.43828	-0	0	0	0	-0.000933471	0	-0.000639864	0	0	0
1.86	-204.761	1332.91	70.9856	1.02177	0	-0.313918	-0	6.24631	-0	0	0	0	-0.000933467	0	-0.00063994	0	0	0
